<svg xmlns="http://www.w3.org/2000/svg" width="25" height="25" viewBox="0,0,255.99297,255.99297">
    <g fill="#ffffff">
        <g transform="scale(16,16)">
            <path d="
        M7.5,1
        c-3.58203,0 -6.5,2.91797 -6.5,6.5
        c0,3.58203 2.91797,6.5 6.5,6.5
        c3.58203,0 6.5,-2.91797 6.5,-6.5
        c0,-3.58203 -2.91797,-6.5 -6.5,-6.5
        z
        M7.5,2
        c3.04297,0 5.5,2.45703 5.5,5.5
        c0,3.04297 -2.45703,5.5 -5.5,5.5
        c-3.04297,0 -5.5,-2.45703 -5.5,-5.5
        c0,-3.04297 2.45703,-5.5 5.5,-5.5
        z
        M4,7
        h7
        v1
        h-7
        z
      "/>
        </g>
    </g>
</svg>
