<svg xmlns="http://www.w3.org/2000/svg" x="0px" y="0px" width="25" height="25" viewBox="0,0,255.99297,255.99297">
    <g fill="#ffffff" fill-rule="nonzero" stroke="none" stroke-width="1" stroke-linecap="butt" stroke-linejoin="miter" stroke-miterlimit="10" stroke-dasharray="" stroke-dashoffset="0" font-family="none" font-weight="none" font-size="none" text-anchor="none" style="mix-blend-mode: normal"><g transform="scale(16,16)"><path d="M7.5,1c-3.58203,0 -6.5,2.91797 -6.5,6.5c0,3.58203 2.91797,6.5 6.5,6.5c3.58203,0 6.5,-2.91797 6.5,-6.5c0,-3.58203 -2.91797,-6.5 -6.5,-6.5zM7.5,2c3.04297,0 5.5,2.45703 5.5,5.5c0,3.04297 -2.45703,5.5 -5.5,5.5c-3.04297,0 -5.5,-2.45703 -5.5,-5.5c0,-3.04297 2.45703,-5.5 5.5,-5.5zM7,4v3h-3v1h3v3h1v-3h3v-1h-3v-3z"></path></g></g>
</svg>